PathFileType	4	(X/Y/Z)
DataRate	CameraRate	NumFrames	NumMarkers	Units	OrigDataRate	OrigDataStartFrame	OrigNumFrames	
  120.0	  120.0	    4	     56	     mm	  120.0	      54	    431
Frame#	Time	LASI			RASI			LPSI			RPSI			RTH1			RTH2			RTH3			RLFC			RMFC			LTH1			LTH2			LTH3			LLFC			LMFC			RTB1			RTB2			RTB3			RLMAL			RMMAL			LTB1			LTB2			LTB3			LMMAL			LLMAL			RCAL			RTOE			RMT5			LCAL			LTOE			LMT5			LACR			RACR			CLAV			C7			LASH			LPSH			RASH			RPSH			RUA1			RUA2			RUA3			RLEL			RMEL			LUA1			LUA2			LUA3			LLEL			LMEL			RFAsuperior			RFAradius			RFAulna			LFAsuperior			LFAradius			LFAulna			RHJC			LHJC			
		X1	Y1	Z1	X2	Y2	Z2	X3	Y3	Z3	X4	Y4	Z4	X5	Y5	Z5	X6	Y6	Z6	X7	Y7	Z7	X8	Y8	Z8	X9	Y9	Z9	X10	Y10	Z10	X11	Y11	Z11	X12	Y12	Z12	X13	Y13	Z13	X14	Y14	Z14	X15	Y15	Z15	X16	Y16	Z16	X17	Y17	Z17	X18	Y18	Z18	X19	Y19	Z19	X20	Y20	Z20	X21	Y21	Z21	X22	Y22	Z22	X23	Y23	Z23	X24	Y24	Z24	X25	Y25	Z25	X26	Y26	Z26	X27	Y27	Z27	X28	Y28	Z28	X29	Y29	Z29	X30	Y30	Z30	X31	Y31	Z31	X32	Y32	Z32	X33	Y33	Z33	X34	Y34	Z34	X35	Y35	Z35	X36	Y36	Z36	X37	Y37	Z37	X38	Y38	Z38	X39	Y39	Z39	X40	Y40	Z40	X41	Y41	Z41	X42	Y42	Z42	X43	Y43	Z43	X44	Y44	Z44	X45	Y45	Z45	X46	Y46	Z46	X47	Y47	Z47	X48	Y48	Z48	X49	Y49	Z49	X50	Y50	Z50	X51	Y51	Z51	X52	Y52	Z52	X53	Y53	Z53	X54	Y54	Z54	X55	Y55	Z55	X56	Y56	Z56	

54	0.45000	881.17941	1031.38975	-613.11563	888.60843	1025.24873	-376.34431	721.98513	1055.44808	-541.60996	719.46741	1053.38474	-443.12784	807.72902	871.95633	-302.11643	871.06554	739.07881	-304.27548	789.40667	611.76678	-314.25709	806.20434	516.50217	-304.62129	794.41795	503.52228	-429.21311	821.46377	850.29326	-683.35107	873.73579	741.32940	-682.43466	798.89065	627.07089	-665.04232	818.63853	519.15396	-669.27995	809.03040	504.06677	-550.18922	834.35880	372.82013	-338.77486	787.83129	329.82575	-268.53931	809.72609	254.39030	-322.29047	740.07681	139.73236	-266.76094	775.13552	124.19000	-345.18014	844.97276	394.05673	-626.41566	789.59019	337.00086	-708.48564	817.48062	229.90471	-655.50080	785.55780	122.17472	-627.37191	760.99081	125.92858	-709.93371	689.40642	105.27158	-301.83469	896.75220	73.66402	-315.92019	873.97082	64.05383	-222.71830	703.34658	107.27492	-672.17378	908.98769	78.07986	-661.77926	890.66158	64.37634	-751.81148	780.94701	1494.07173	-660.35882	779.08555	1491.55526	-313.51997	848.21877	1482.46662	-462.95705	722.62644	1528.19003	-492.07815	849.21591	1453.80166	-638.41287	725.75716	1441.32270	-680.17043	843.24672	1460.17205	-337.24655	712.17458	1438.75684	-310.72088	832.34787	1443.39583	-202.75346	805.48122	1385.80768	-176.16448	889.52274	1424.21097	-139.74362	932.93062	1402.81831	-81.09941	936.01615	1322.09958	-99.84649	831.63396	1431.22913	-771.26849	849.19992	1380.38897	-818.11777	923.74072	1422.56199	-805.78508	968.62188	1395.40337	-880.39555	947.67846	1320.08352	-858.47603	1054.86429	1414.60779	-121.24469	1169.69766	1380.61253	-175.00092	1176.14488	1384.44934	-103.85063	1095.28099	1399.82993	-841.53291	1188.13854	1347.91062	-766.66401	1206.07531	1372.85478	-828.81452	798.94543	994.21939	-429.18354	813.80651	979.80988	-556.24798	
55	0.45833	881.19884	1031.39170	-613.10042	888.60144	1025.24651	-376.37108	722.00332	1055.44494	-541.62709	719.46545	1053.39791	-443.13872	807.74695	871.95935	-302.12572	871.04582	738.97287	-304.46388	789.42739	611.64926	-314.37263	806.23336	516.51840	-304.58790	794.44543	503.51345	-429.21491	821.51189	850.29056	-683.35492	873.79041	741.32183	-682.39710	798.97282	627.07028	-665.06587	818.69398	519.14743	-669.26528	809.02252	504.08213	-550.19228	834.36910	372.80479	-338.65767	787.84409	329.83059	-268.52406	809.74899	254.37696	-322.29851	740.06965	139.73095	-266.78558	775.13679	124.18838	-345.17321	844.99764	394.05637	-626.42634	789.61979	336.99037	-708.48652	817.50350	229.90049	-655.50956	785.53354	122.16331	-627.41975	760.99864	125.92899	-709.93706	689.41790	105.27429	-301.83177	896.75674	73.67041	-315.90546	873.97786	64.06791	-222.71706	703.35657	107.27229	-672.15421	908.99403	78.06463	-661.75610	890.66563	64.37047	-751.81520	780.97285	1494.08722	-660.36050	779.08515	1491.53337	-313.56125	848.21266	1482.43857	-462.97980	722.63551	1528.20234	-492.07790	849.23370	1453.78993	-638.41728	725.76873	1441.31140	-680.16376	843.25142	1460.21066	-337.18745	712.17810	1438.75310	-310.73168	832.34963	1443.38142	-202.75899	805.47633	1385.78842	-176.17278	889.51637	1424.17944	-139.77151	932.92498	1402.79328	-81.09413	936.01695	1322.07742	-99.86216	831.66572	1431.22809	-771.26473	849.23219	1380.37936	-818.15450	923.77043	1422.55756	-805.77797	968.65202	1395.39342	-880.39794	947.71633	1320.09770	-858.45308	1054.86405	1414.57770	-121.24148	1169.69447	1380.58054	-175.00468	1176.10725	1384.31999	-103.96581	1095.30371	1399.81350	-841.53425	1188.15248	1347.84570	-766.69363	1206.12000	1372.83315	-828.79536	798.94733	994.22006	-429.19495	813.81487	979.81376	-556.25914	
56	0.46667	881.23046	1031.39250	-613.09711	888.59709	1025.24421	-376.38574	722.03677	1055.43114	-541.66433	719.45505	1053.39977	-443.16501	807.76072	871.98557	-302.10619	871.03737	738.86800	-304.61661	789.46467	611.56426	-314.44833	806.27542	516.53603	-304.54626	794.49482	503.50709	-429.21719	821.55399	850.28566	-683.37024	873.83447	741.31356	-682.35684	799.04777	627.06625	-665.09742	818.75198	519.14257	-669.24943	808.97751	504.12087	-550.20740	834.31733	372.80586	-338.68170	787.86102	329.83867	-268.51097	809.77515	254.36838	-322.30738	740.06948	139.73492	-266.76566	775.13563	124.18780	-345.16989	845.02075	394.05106	-626.44170	789.65570	336.98508	-708.50112	817.52701	229.89753	-655.52204	785.50587	122.15007	-627.47128	761.00851	125.92570	-709.94516	689.43165	105.28624	-301.82286	896.76113	73.67408	-315.89242	873.98406	64.07580	-222.71669	703.36895	107.27029	-672.15991	908.99790	78.05379	-661.73122	890.67040	64.36938	-751.81787	781.00587	1494.10474	-660.36788	779.08428	1491.50900	-313.59273	848.21262	1482.39969	-462.99958	722.64007	1528.20803	-492.08743	849.25420	1453.77510	-638.42463	725.78577	1441.29680	-680.15786	843.25499	1460.26830	-337.09852	712.18418	1438.75423	-310.71357	832.34727	1443.35997	-202.76866	805.47369	1385.76018	-176.18099	889.50667	1424.14323	-139.79959	932.92359	1402.76442	-81.09016	936.01485	1322.05427	-99.87459	831.69234	1431.22514	-771.26530	849.27362	1380.36149	-818.19376	923.80099	1422.54737	-805.77472	968.68468	1395.37808	-880.40104	947.74817	1320.09847	-858.43910	1054.86751	1414.54529	-121.23657	1169.68993	1380.55087	-174.98147	1176.08530	1384.23113	-104.02657	1095.32903	1399.79278	-841.53545	1188.19894	1347.87790	-766.65402	1206.16826	1372.80782	-828.78558	798.95121	994.21563	-429.21499	813.83972	979.81166	-556.27696	
57	0.47500	881.26778	1031.38806	-613.11499	888.59527	1025.24326	-376.38529	722.07643	1055.41294	-541.71620	719.44077	1053.39328	-443.19916	807.77152	872.02966	-302.06635	871.06452	738.81829	-304.64939	789.52220	611.57309	-314.42379	806.31753	516.52987	-304.53976	794.54117	503.50745	-429.21551	821.58851	850.27807	-683.39339	873.87121	741.30690	-682.32290	799.10352	627.05769	-665.13253	818.80399	519.13980	-669.24839	808.92387	504.16782	-550.22955	834.20513	372.81658	-338.83150	787.87750	329.83885	-268.50979	809.79836	254.36876	-322.31262	740.08056	139.74198	-266.71309	775.13421	124.18817	-345.17083	845.04196	394.04118	-626.45183	789.69491	336.98675	-708.52965	817.54708	229.89451	-655.53168	785.49130	122.14620	-627.49214	761.01846	125.91930	-709.95671	689.44417	105.30031	-301.81481	896.76400	73.67202	-315.89172	873.98856	64.07375	-222.71372	703.37940	107.26938	-672.18600	909.00221	78.05140	-661.71853	890.67580	64.37340	-751.81680	781.04255	1494.10980	-660.37972	779.08417	1491.48479	-313.60799	848.22227	1482.36994	-463.00131	722.64323	1528.20521	-492.10214	849.27712	1453.75868	-638.42624	725.80721	1441.27989	-680.15385	843.25939	1460.29134	-337.05166	712.19596	1438.76179	-310.66253	832.34014	1443.33091	-202.78190	805.46927	1385.72429	-176.19193	889.49615	1424.10487	-139.82110	932.92588	1402.72810	-81.09207	936.00784	1322.02947	-99.88196	831.71558	1431.22079	-771.27040	849.31425	1380.33965	-818.21922	923.83006	1422.53418	-805.77396	968.72011	1395.35654	-880.40817	947.77463	1320.09616	-858.41083	1054.87147	1414.50787	-121.23163	1169.68982	1380.52135	-174.95353	1176.07568	1384.17491	-104.04061	1095.35946	1399.77043	-841.53129	1188.25005	1347.88252	-766.59987	1206.21326	1372.78014	-828.79186	798.95660	994.20915	-429.24074	813.87216	979.80350	-556.29925	
